<svg width="1440" height="1190" viewBox="0 0 1440 1190" fill="none" xmlns="http://www.w3.org/2000/svg">
<g clip-path="url(#clip0)">
<rect width="1440" height="1190" fill="white"/>
<rect x="497.378" y="-40.3093" width="91.0104" height="1312.92" transform="rotate(26.5959 497.378 -40.3093)" fill="#03A7EF"/>
<rect x="-71.119" y="87.1656" width="89.0104" height="1837.38" transform="rotate(-55.982 -71.119 87.1656)" fill="#03A7EF" stroke="black" stroke-width="2"/>
<rect x="-72.5073" y="379.435" width="91.0104" height="1839.38" transform="rotate(-55.982 -72.5073 379.435)" fill="#A74E60"/>
<rect x="333.386" y="-68.6014" width="89.0104" height="1273.29" transform="rotate(26.5959 333.386 -68.6014)" fill="#A74E60" stroke="black" stroke-width="2"/>
<path d="M201.92 1062.44L194.52 1091H188.88L184.36 1074.6C184.2 1074.07 184.027 1073.39 183.84 1072.56C183.653 1071.71 183.48 1070.88 183.32 1070.08C183.16 1069.28 183.053 1068.69 183 1068.32C182.947 1068.69 182.84 1069.28 182.68 1070.08C182.547 1070.85 182.373 1071.67 182.16 1072.52C181.973 1073.37 181.8 1074.09 181.64 1074.68L177.24 1091H171.56L164.2 1062.44H169.32L173.24 1078.72C173.427 1079.41 173.6 1080.2 173.76 1081.08C173.947 1081.96 174.12 1082.84 174.28 1083.72C174.44 1084.57 174.56 1085.32 174.64 1085.96C174.72 1085.29 174.84 1084.52 175 1083.64C175.16 1082.76 175.333 1081.91 175.52 1081.08C175.707 1080.23 175.88 1079.51 176.04 1078.92L180.52 1062.44H185.48L190.04 1078.96C190.227 1079.55 190.413 1080.28 190.6 1081.16C190.787 1082.01 190.96 1082.87 191.12 1083.72C191.28 1084.57 191.4 1085.32 191.48 1085.96C191.56 1085.29 191.667 1084.53 191.8 1083.68C191.96 1082.83 192.133 1081.96 192.32 1081.08C192.507 1080.2 192.693 1079.41 192.88 1078.72L196.8 1062.44H201.92ZM207.885 1060.96C208.658 1060.96 209.312 1061.16 209.845 1061.56C210.405 1061.93 210.685 1062.61 210.685 1063.6C210.685 1064.59 210.405 1065.28 209.845 1065.68C209.312 1066.08 208.658 1066.28 207.885 1066.28C207.112 1066.28 206.445 1066.08 205.885 1065.68C205.352 1065.28 205.085 1064.59 205.085 1063.6C205.085 1062.61 205.352 1061.93 205.885 1061.56C206.445 1061.16 207.112 1060.96 207.885 1060.96ZM210.405 1069.32V1091H205.365V1069.32H210.405ZM221.889 1067.8C221.889 1068.65 221.863 1069.48 221.809 1070.28C221.756 1071.08 221.703 1071.71 221.649 1072.16H221.889C222.476 1071.25 223.276 1070.49 224.289 1069.88C225.303 1069.24 226.623 1068.92 228.249 1068.92C230.756 1068.92 232.783 1069.87 234.329 1071.76C235.903 1073.65 236.689 1076.44 236.689 1080.12C236.689 1083.85 235.903 1086.67 234.329 1088.56C232.756 1090.45 230.689 1091.4 228.129 1091.4C226.503 1091.4 225.196 1091.11 224.209 1090.52C223.249 1089.93 222.476 1089.25 221.889 1088.48H221.529L220.609 1091H216.849V1060.6H221.889V1067.8ZM226.809 1073C224.996 1073 223.729 1073.55 223.009 1074.64C222.289 1075.73 221.916 1077.41 221.889 1079.68V1080.12C221.889 1082.44 222.236 1084.21 222.929 1085.44C223.649 1086.67 224.969 1087.28 226.889 1087.28C228.383 1087.28 229.529 1086.67 230.329 1085.44C231.129 1084.19 231.529 1082.4 231.529 1080.08C231.529 1077.71 231.116 1075.93 230.289 1074.76C229.489 1073.59 228.329 1073 226.809 1073ZM261.128 1069.32V1091H257.168L256.488 1088.2H256.248C255.528 1089.32 254.555 1090.13 253.328 1090.64C252.128 1091.15 250.848 1091.4 249.488 1091.4C247.062 1091.4 245.155 1090.77 243.768 1089.52C242.408 1088.27 241.728 1086.25 241.728 1083.48V1069.32H246.768V1082.48C246.768 1085.71 248.102 1087.32 250.768 1087.32C252.795 1087.32 254.182 1086.69 254.928 1085.44C255.702 1084.16 256.088 1082.32 256.088 1079.92V1069.32H261.128Z" fill="#A64652"/>
<path d="M272.233 1079.92L265.073 1069.32H270.793L275.513 1076.68L280.233 1069.32H285.953L278.713 1079.92L286.313 1091H280.593L275.513 1083.12L270.433 1091H264.713L272.233 1079.92ZM307.975 1091H288.415V1087.28L295.695 1079.92C297.135 1078.45 298.309 1077.2 299.215 1076.16C300.149 1075.12 300.829 1074.15 301.255 1073.24C301.709 1072.31 301.935 1071.31 301.935 1070.24C301.935 1068.93 301.562 1067.96 300.815 1067.32C300.069 1066.65 299.082 1066.32 297.855 1066.32C296.655 1066.32 295.535 1066.57 294.495 1067.08C293.455 1067.56 292.375 1068.25 291.255 1069.16L288.495 1065.84C289.669 1064.83 291.002 1063.95 292.495 1063.2C293.989 1062.43 295.869 1062.04 298.135 1062.04C299.975 1062.04 301.562 1062.37 302.895 1063.04C304.229 1063.68 305.242 1064.57 305.935 1065.72C306.655 1066.87 307.015 1068.2 307.015 1069.72C307.015 1071.27 306.709 1072.69 306.095 1074C305.482 1075.28 304.589 1076.57 303.415 1077.88C302.269 1079.16 300.895 1080.55 299.295 1082.04L294.775 1086.4V1086.64H307.975V1091Z" fill="#03A7EF"/>
<rect x="201.45" y="1113.64" width="4.64254" height="97.3941" transform="rotate(-92.0076 201.45 1113.64)" fill="#A64652"/>
<rect x="206.163" y="1105.05" width="4.64254" height="53.2465" transform="rotate(-92.0076 206.163 1105.05)" fill="#03A7EF"/>
</g>
<defs>
<clipPath id="clip0">
<rect width="1440" height="1190" fill="white"/>
</clipPath>
</defs>
</svg>
